HIERARCHY
ROOT Hips
{
	OFFSET 0.000000 71.427986 0.000000
	CHANNELS 6 Xposition Yposition Zposition Xrotation Yrotation Zrotation
	JOINT Pelvis
	{
		OFFSET 0.000000 0.000000 0.000000
		CHANNELS 3 Xrotation Yrotation Zrotation
		JOINT LeftUpLeg
		{
			OFFSET 6.797100 -2.508499 -1.318700
			CHANNELS 3 Xrotation Yrotation Zrotation
			JOINT LeftLeg
			{
				OFFSET 0.069008 -29.241863 0.690200
				CHANNELS 3 Xrotation Yrotation Zrotation
				JOINT LeftFoot
				{
					OFFSET -0.069008 -29.568123 -0.266800
					CHANNELS 3 Xrotation Yrotation Zrotation
					JOINT LeftToeBase
					{
						OFFSET 3.145500 -8.631000 16.059900
						CHANNELS 3 Xrotation Yrotation Zrotation
						End Site
						{
							OFFSET 0.000000 18.501587 0.000000
						}
					}
				}
			}
			JOINT Left_ShortSleeve
			{
				OFFSET 0.265923 -10.480953 1.153800
				CHANNELS 3 Xrotation Yrotation Zrotation
				End Site
				{
					OFFSET 1.725763 19.823879 0.000000
				}
			}
		}
		JOINT RightUpLeg
		{
			OFFSET -6.797100 -2.508499 -1.318700
			CHANNELS 3 Xrotation Yrotation Zrotation
			JOINT RightLeg
			{
				OFFSET -0.082453 -29.241932 0.688000
				CHANNELS 3 Xrotation Yrotation Zrotation
				JOINT RightFoot
				{
					OFFSET 0.082453 -29.568058 -0.264600
					CHANNELS 3 Xrotation Yrotation Zrotation
					JOINT RightToeBase
					{
						OFFSET -3.115300 -8.682800 16.113400
						CHANNELS 3 Xrotation Yrotation Zrotation
						End Site
						{
							OFFSET 0.000000 18.567114 0.000000
						}
					}
				}
			}
			JOINT Right_ShortSleeve
			{
				OFFSET -0.265923 -10.480953 1.153800
				CHANNELS 3 Xrotation Yrotation Zrotation
				End Site
				{
					OFFSET -1.725766 19.823910 0.000000
				}
			}
		}
	}
	JOINT Spine
	{
		OFFSET 0.000000 13.368103 0.470500
		CHANNELS 3 Xrotation Yrotation Zrotation
		JOINT Spine1
		{
			OFFSET 0.147000 13.837402 0.538800
			CHANNELS 3 Xrotation Yrotation Zrotation
			JOINT Spine2
			{
				OFFSET 0.168000 16.242897 -1.435500
				CHANNELS 3 Xrotation Yrotation Zrotation
				JOINT Neck
				{
					OFFSET 0.217200 18.631500 -1.679100
					CHANNELS 3 Xrotation Yrotation Zrotation
					JOINT Head
					{
						OFFSET 0.000000 6.599396 1.385900
						CHANNELS 3 Xrotation Yrotation Zrotation
						JOINT Hat
						{
							OFFSET -0.532200 27.220596 -10.096100
							CHANNELS 3 Xrotation Yrotation Zrotation
							End Site
							{
								OFFSET 0.000000 22.029861 0.000000
							}
						}
						JOINT HairD
						{
							OFFSET -10.777400 17.437393 -1.325900
							CHANNELS 3 Xrotation Yrotation Zrotation
							JOINT HairD1
							{
								OFFSET -3.290299 -11.051193 1.062200
								CHANNELS 3 Xrotation Yrotation Zrotation
								End Site
								{
									OFFSET 0.000000 11.579437 0.000000
								}
							}
						}
						JOINT HairB
						{
							OFFSET -10.777400 17.437393 1.467900
							CHANNELS 3 Xrotation Yrotation Zrotation
							JOINT HairB1
							{
								OFFSET -1.561200 -12.956299 3.590200
								CHANNELS 3 Xrotation Yrotation Zrotation
								End Site
								{
									OFFSET 0.000000 13.534866 0.000000
								}
							}
						}
						JOINT HairA
						{
							OFFSET 9.713100 17.437393 1.467900
							CHANNELS 3 Xrotation Yrotation Zrotation
							JOINT HairA1
							{
								OFFSET 1.561200 -12.956299 3.590200
								CHANNELS 3 Xrotation Yrotation Zrotation
								End Site
								{
									OFFSET 0.000000 13.534866 0.000000
								}
							}
						}
						JOINT HairC
						{
							OFFSET 9.713100 17.437393 -1.325900
							CHANNELS 3 Xrotation Yrotation Zrotation
							JOINT HairC1
							{
								OFFSET 3.290300 -11.051193 1.062200
								CHANNELS 3 Xrotation Yrotation Zrotation
								End Site
								{
									OFFSET 0.000000 11.579437 0.000000
								}
							}
						}
					}
				}
				JOINT LeftShoulder
				{
					OFFSET 5.101800 15.108002 -2.763700
					CHANNELS 3 Xrotation Yrotation Zrotation
					JOINT LeftArm
					{
						OFFSET 9.825497 2.506317 -1.597400
						CHANNELS 3 Xrotation Yrotation Zrotation
						JOINT LeftForeArm
						{
							OFFSET 21.966244 0.000000 0.000000
							CHANNELS 3 Xrotation Yrotation Zrotation
							JOINT LeftHand
							{
								OFFSET 33.879036 0.000000 0.000000
								CHANNELS 3 Xrotation Yrotation Zrotation
								JOINT LeftHandThumb1
								{
									OFFSET 6.715286 -2.359680 3.363841
									CHANNELS 3 Xrotation Yrotation Zrotation
									JOINT LeftHandThumb2
									{
										OFFSET 2.507072 -1.447464 1.447461
										CHANNELS 3 Xrotation Yrotation Zrotation
										JOINT LeftHandThumb3
										{
											OFFSET 2.898338 -1.673355 1.673357
											CHANNELS 3 Xrotation Yrotation Zrotation
											End Site
											{
												OFFSET -0.295959 3.727692 -0.131651
											}
										}
									}
								}
								JOINT LeftHandIndex1
								{
									OFFSET 14.190811 -0.254547 3.840278
									CHANNELS 3 Xrotation Yrotation Zrotation
									JOINT LeftHandIndex2
									{
										OFFSET 3.551727 0.000000 -0.000000
										CHANNELS 3 Xrotation Yrotation Zrotation
										JOINT LeftHandIndex3
										{
											OFFSET 2.894196 0.000000 0.000000
											CHANNELS 3 Xrotation Yrotation Zrotation
											End Site
											{
												OFFSET -1.000603 2.690872 0.366626
											}
										}
									}
								}
								JOINT LeftHandMiddle1
								{
									OFFSET 13.776489 0.000000 0.000000
									CHANNELS 3 Xrotation Yrotation Zrotation
									JOINT LeftHandMiddle2
									{
										OFFSET 3.438232 0.000000 0.000000
										CHANNELS 3 Xrotation Yrotation Zrotation
										JOINT LeftHandMiddle3
										{
											OFFSET 3.691551 0.000000 0.000000
											CHANNELS 3 Xrotation Yrotation Zrotation
											End Site
											{
												OFFSET -1.082298 3.499527 0.457670
											}
										}
									}
								}
								JOINT LeftHandRing1
								{
									OFFSET 13.966164 -0.268127 -3.067488
									CHANNELS 3 Xrotation Yrotation Zrotation
									JOINT LeftHandRing2
									{
										OFFSET 3.162567 0.000000 0.000000
										CHANNELS 3 Xrotation Yrotation Zrotation
										JOINT LeftHandRing3
										{
											OFFSET 3.324348 0.000000 0.000000
											CHANNELS 3 Xrotation Yrotation Zrotation
											End Site
											{
												OFFSET -0.861900 3.184998 0.405154
											}
										}
									}
								}
								JOINT LeftHandPinky1
								{
									OFFSET 13.131393 -0.168503 -5.746925
									CHANNELS 3 Xrotation Yrotation Zrotation
									JOINT LeftHandPinky2
									{
										OFFSET 2.849182 0.000000 0.000000
										CHANNELS 3 Xrotation Yrotation Zrotation
										JOINT LeftHandPinky3
										{
											OFFSET 2.805038 0.000000 0.000000
											CHANNELS 3 Xrotation Yrotation Zrotation
											End Site
											{
												OFFSET -0.882500 2.642609 0.325652
											}
										}
									}
								}
							}
							JOINT Left_Sleeve
							{
								OFFSET 6.592125 -0.646545 0.805568
								CHANNELS 3 Xrotation Yrotation Zrotation
								End Site
								{
									OFFSET -0.000179 20.275787 -0.000000
								}
							}
						}
					}
				}
				JOINT RightShoulder
				{
					OFFSET -5.731700 15.108002 -2.763700
					CHANNELS 3 Xrotation Yrotation Zrotation
					JOINT RightArm
					{
						OFFSET -9.825497 2.506317 -1.597400
						CHANNELS 3 Xrotation Yrotation Zrotation
						JOINT RightForeArm
						{
							OFFSET -21.966242 0.000000 0.000000
							CHANNELS 3 Xrotation Yrotation Zrotation
							JOINT RightHand
							{
								OFFSET -33.879032 0.000000 0.000000
								CHANNELS 3 Xrotation Yrotation Zrotation
								JOINT RightHandThumb1
								{
									OFFSET -6.715286 -2.359680 3.363841
									CHANNELS 3 Xrotation Yrotation Zrotation
									JOINT RightHandThumb2
									{
										OFFSET -2.507072 -1.447464 1.447461
										CHANNELS 3 Xrotation Yrotation Zrotation
										JOINT RightHandThumb3
										{
											OFFSET -2.898338 -1.673355 1.673357
											CHANNELS 3 Xrotation Yrotation Zrotation
											End Site
											{
												OFFSET 0.295959 3.727692 -0.131651
											}
										}
									}
								}
								JOINT RightHandIndex1
								{
									OFFSET -14.190811 -0.254547 3.840278
									CHANNELS 3 Xrotation Yrotation Zrotation
									JOINT RightHandIndex2
									{
										OFFSET -3.551727 0.000000 -0.000000
										CHANNELS 3 Xrotation Yrotation Zrotation
										JOINT RightHandIndex3
										{
											OFFSET -2.894196 0.000000 0.000000
											CHANNELS 3 Xrotation Yrotation Zrotation
											End Site
											{
												OFFSET 1.000603 2.690872 0.366626
											}
										}
									}
								}
								JOINT RightHandMiddle1
								{
									OFFSET -13.776489 0.000000 0.000000
									CHANNELS 3 Xrotation Yrotation Zrotation
									JOINT RightHandMiddle2
									{
										OFFSET -3.438232 0.000000 0.000000
										CHANNELS 3 Xrotation Yrotation Zrotation
										JOINT RightHandMiddle3
										{
											OFFSET -3.691551 0.000000 0.000000
											CHANNELS 3 Xrotation Yrotation Zrotation
											End Site
											{
												OFFSET 1.082298 3.499527 0.457670
											}
										}
									}
								}
								JOINT RightHandRing1
								{
									OFFSET -13.966164 -0.268127 -3.067488
									CHANNELS 3 Xrotation Yrotation Zrotation
									JOINT RightHandRing2
									{
										OFFSET -3.162567 0.000000 0.000000
										CHANNELS 3 Xrotation Yrotation Zrotation
										JOINT RightHandRing3
										{
											OFFSET -3.324348 0.000000 0.000000
											CHANNELS 3 Xrotation Yrotation Zrotation
											End Site
											{
												OFFSET 0.861900 3.184998 0.405154
											}
										}
									}
								}
								JOINT RightHandPinky1
								{
									OFFSET -13.131393 -0.168503 -5.746925
									CHANNELS 3 Xrotation Yrotation Zrotation
									JOINT RightHandPinky2
									{
										OFFSET -2.849182 0.000000 0.000000
										CHANNELS 3 Xrotation Yrotation Zrotation
										JOINT RightHandPinky3
										{
											OFFSET -2.805038 0.000000 0.000000
											CHANNELS 3 Xrotation Yrotation Zrotation
											End Site
											{
												OFFSET 0.882500 2.642609 0.325652
											}
										}
									}
								}
							}
							JOINT Right_Sleeve
							{
								OFFSET -6.592125 -0.646545 0.805568
								CHANNELS 3 Xrotation Yrotation Zrotation
								End Site
								{
									OFFSET 0.000179 20.275787 -0.000000
								}
							}
						}
					}
				}
				JOINT Bind_Right_JacketString
				{
					OFFSET -3.534800 11.969597 7.200700
					CHANNELS 3 Xrotation Yrotation Zrotation
					JOINT Bind_Right_JacketString1
					{
						OFFSET -0.319900 -6.102600 2.794100
						CHANNELS 3 Xrotation Yrotation Zrotation
						End Site
						{
							OFFSET 0.000000 6.719452 0.000000
						}
					}
				}
				JOINT Bind_Left_JacketString
				{
					OFFSET 2.904800 11.969597 7.200700
					CHANNELS 3 Xrotation Yrotation Zrotation
					JOINT Bind_Left_JacketString1
					{
						OFFSET 0.364800 -5.904503 3.186800
						CHANNELS 3 Xrotation Yrotation Zrotation
						End Site
						{
							OFFSET 0.000000 6.719513 0.000000
						}
					}
				}
				JOINT HairE
				{
					OFFSET 5.915200 17.612701 -11.592200
					CHANNELS 3 Xrotation Yrotation Zrotation
					JOINT HairE1
					{
						OFFSET 0.289200 -7.171898 -1.284500
						CHANNELS 3 Xrotation Yrotation Zrotation
						End Site
						{
							OFFSET 0.000000 7.291756 0.000000
						}
					}
				}
				JOINT HairF
				{
					OFFSET -0.864800 17.612701 -11.592200
					CHANNELS 3 Xrotation Yrotation Zrotation
					JOINT HairF1
					{
						OFFSET 0.000000 -14.087097 -2.127501
						CHANNELS 3 Xrotation Yrotation Zrotation
						End Site
						{
							OFFSET 0.000000 14.246841 0.000000
						}
					}
				}
				JOINT HairG
				{
					OFFSET -8.087700 17.612701 -11.592200
					CHANNELS 3 Xrotation Yrotation Zrotation
					JOINT HairG1
					{
						OFFSET -0.293600 -6.081398 -0.910100
						CHANNELS 3 Xrotation Yrotation Zrotation
						End Site
						{
							OFFSET 0.000000 6.156120 0.000000
						}
					}
				}
			}
		}
	}
	JOINT Pouch
	{
		OFFSET 0.000000 4.394501 10.847300
		CHANNELS 3 Xrotation Yrotation Zrotation
		End Site
		{
			OFFSET 0.000000 21.880577 0.000000
		}
	}
	JOINT Bag
	{
		OFFSET -13.229000 4.813004 -0.593300
		CHANNELS 3 Xrotation Yrotation Zrotation
		End Site
		{
			OFFSET 0.000000 21.880577 0.000000
		}
	}
	JOINT OccupyGuyFacialAnim_Joint
	{
		OFFSET 1.000000 -70.206398 -1.655000
		CHANNELS 3 Xrotation Yrotation Zrotation
		End Site
		{
			OFFSET 0.000000 21.880577 0.000000
		}
	}
}
MOTION
Frames: 4
Frame Time: 0.033333
-1.128693 67.638435 0.153986 72.545454 -68.909690 73.935780 -0.000001 -0.000000 0.000000 -43.058421 -0.231466 0.191359 29.996094 -3.036572 3.418431 -7.168296 0.565094 -5.409962 -0.000000 -0.000000 0.000000 -0.000001 0.000001 0.000000 -42.354044 -1.034613 -7.697846 32.497285 -0.590188 -5.605167 -10.094327 -1.308360 9.931216 -0.000000 -0.000000 0.000000 0.000000 -0.000000 -0.000001 25.871387 2.835408 1.068841 6.585547 0.864345 0.590052 6.591136 0.827456 0.561188 5.935883 -0.786777 -0.092428 16.489214 -5.162258 6.440733 0.000001 -0.000000 -0.000000 0.000001 -0.000000 -0.000000 0.000001 -0.000000 -0.000000 0.000001 -0.000000 -0.000000 0.000001 -0.000000 -0.000000 0.000001 -0.000000 -0.000000 0.000001 -0.000000 -0.000000 0.000001 -0.000000 -0.000000 0.000001 -0.000000 -0.000000 -0.455859 -26.007926 1.717473 -39.494548 -14.592595 -87.670621 -0.000000 -28.258735 0.000006 -26.601466 17.599849 23.010883 47.335250 -9.767193 19.370657 5.975223 12.647529 1.348323 -0.000002 0.000002 0.000001 2.673513 7.224013 -56.285414 7.379871 5.648434 -105.171888 -0.000001 -0.000001 -0.000002 3.849300 7.823820 -69.259409 5.350765 5.829708 -85.086317 0.000002 -0.000002 0.000004 5.186188 8.153285 -82.789344 4.747002 5.746330 -79.104813 0.000001 0.000000 0.000001 5.971094 8.198887 -90.500703 2.749716 4.963941 -57.946444 0.000002 -0.000001 0.000001 -0.000000 -0.000001 -0.000002 -0.395272 14.119807 18.659150 -52.596562 12.257435 74.744912 0.000002 12.128025 0.000000 -10.975293 -21.103936 -1.471415 14.500997 -6.211803 -0.243358 6.358385 -14.447594 -2.112215 -0.000001 -0.000001 0.000000 2.454446 -6.353463 61.045656 2.589171 -4.173724 63.612796 -0.000000 -0.000002 0.000002 2.825963 -6.536743 66.148763 2.589185 -4.173761 63.612782 -0.000000 0.000000 0.000001 2.825947 -6.536696 66.148757 2.589187 -4.173773 63.612796 -0.000003 0.000000 0.000001 2.322358 -6.277991 59.172060 1.343810 -3.274563 44.615113 0.000000 0.000001 -0.000001 0.000001 -0.000001 -0.000001 0.000001 0.000000 0.000000 0.000001 0.000000 0.000000 0.000001 0.000000 -0.000000 0.000001 0.000000 -0.000000 0.000001 0.000000 0.000000 0.000001 0.000000 0.000000 0.000001 0.000000 -0.000000 0.000001 0.000000 -0.000000 0.000001 0.000000 0.000000 0.000001 0.000000 0.000000 -0.000001 -0.000000 0.000000 -0.000001 -0.000000 0.000000 -0.000001 -0.000000 0.000000 
-1.124371 67.637207 0.143382 72.422490 -68.942099 73.824134 -0.000000 0.000000 -0.000000 -43.010316 -0.229452 0.183500 29.975853 -3.057692 3.417447 -7.160759 0.564796 -5.406480 0.000000 0.000000 0.000000 0.000001 -0.000000 -0.000000 -42.326037 -1.034032 -7.708508 32.533178 -0.613750 -5.602733 -10.112411 -1.309800 9.927978 0.000000 -0.000000 0.000000 -0.000004 -0.000000 -0.000000 25.876119 2.920625 1.102962 6.584870 0.891707 0.614843 6.590518 0.854852 0.584786 5.935479 -0.843898 -0.125820 16.565422 -5.482678 6.439463 0.000000 0.000000 0.000000 0.000000 0.000000 0.000000 0.000000 0.000000 0.000000 0.000000 0.000000 0.000000 0.000001 -0.000000 -0.000000 0.000000 0.000000 0.000000 0.000001 -0.000000 -0.000000 0.000000 0.000000 0.000000 0.000000 0.000000 0.000000 -0.441901 -25.957309 1.748945 -39.560182 -14.508871 -87.681010 -0.000010 -28.239421 -0.000016 -26.215195 17.723724 22.607339 47.335250 -9.767193 19.370657 5.975222 12.647530 1.348322 0.000007 -0.000002 -0.000001 2.673514 7.224014 -56.285417 7.379869 5.648436 -105.171881 0.000002 0.000001 -0.000002 3.849299 7.823821 -69.259409 5.350763 5.829711 -85.086317 0.000002 -0.000000 0.000006 5.186190 8.153290 -82.789344 4.747001 5.746332 -79.104806 -0.000002 0.000001 0.000004 5.971094 8.198888 -90.500703 2.749716 4.963938 -57.946444 -0.000003 0.000001 -0.000000 0.000001 0.000000 -0.000001 -0.402409 14.133155 18.696239 -52.295565 12.272393 74.657512 -0.000009 12.733538 0.000012 -11.383543 -21.327366 -1.884509 14.501004 -6.211804 -0.243359 6.358387 -14.447600 -2.112217 0.000000 -0.000002 0.000001 2.454445 -6.353465 61.045663 2.589166 -4.173725 63.612803 0.000002 -0.000001 0.000002 2.825963 -6.536742 66.148763 2.589186 -4.173760 63.612782 -0.000000 -0.000000 -0.000001 2.825949 -6.536695 66.148757 2.589188 -4.173773 63.612796 0.000003 -0.000000 0.000003 2.322359 -6.277990 59.172060 1.343811 -3.274562 44.615120 -0.000001 -0.000000 0.000002 -0.000001 0.000000 -0.000001 -0.000001 -0.000000 -0.000000 -0.000001 -0.000000 -0.000000 -0.000001 -0.000000 -0.000001 -0.000001 -0.000000 -0.000001 -0.000001 -0.000000 -0.000000 -0.000001 -0.000000 -0.000000 -0.000001 -0.000000 -0.000001 -0.000001 -0.000000 -0.000001 -0.000001 -0.000000 -0.000000 -0.000001 -0.000000 -0.000000 -0.000000 0.000000 -0.000000 -0.000000 0.000000 -0.000000 -0.000000 0.000000 -0.000000 
-1.119211 67.636864 0.130824 72.333575 -68.968580 73.752936 -0.000001 -0.000000 0.000000 -42.964926 -0.226257 0.174113 29.941681 -3.066166 3.417346 -7.141287 0.564631 -5.406375 -0.000000 0.000000 -0.000000 0.000000 -0.000000 0.000000 -42.309282 -1.036002 -7.721913 32.563620 -0.623533 -5.601428 -10.125468 -1.307383 9.920789 0.000000 0.000000 -0.000000 -0.000000 -0.000000 -0.000000 25.871445 3.020852 1.135769 6.582315 0.924438 0.638159 6.588155 0.887520 0.606782 5.935441 -0.903991 -0.163572 16.631251 -5.819937 6.414356 0.000001 0.000000 -0.000000 0.000001 0.000000 -0.000000 0.000001 0.000000 -0.000000 0.000001 0.000000 -0.000000 0.000001 -0.000000 -0.000000 0.000001 0.000000 -0.000000 0.000001 -0.000000 -0.000000 0.000001 0.000000 -0.000000 0.000001 0.000000 -0.000000 -0.414348 -25.913056 1.821132 -39.663598 -14.538616 -87.669883 -0.000004 -28.151825 -0.000018 -25.926939 17.830253 22.237324 47.335257 -9.767186 19.370652 5.975228 12.647526 1.348321 0.000006 -0.000000 -0.000001 2.673512 7.224016 -56.285410 7.379870 5.648437 -105.171888 0.000002 0.000003 -0.000001 3.849297 7.823822 -69.259402 5.350765 5.829710 -85.086310 -0.000000 -0.000002 0.000004 5.186190 8.153289 -82.789344 4.747000 5.746333 -79.104806 -0.000003 0.000002 -0.000004 5.971093 8.198890 -90.500703 2.749718 4.963939 -57.946444 -0.000001 -0.000001 -0.000002 0.000002 0.000000 0.000002 -0.407217 14.152652 18.720083 -52.189086 12.229504 74.637008 -0.000003 12.992188 -0.000004 -11.739963 -21.367922 -2.230631 14.501000 -6.211807 -0.243355 6.358386 -14.447594 -2.112216 0.000000 0.000001 0.000000 2.454446 -6.353465 61.045656 2.589169 -4.173725 63.612796 0.000002 -0.000000 -0.000002 2.825962 -6.536747 66.148763 2.589186 -4.173763 63.612782 -0.000001 -0.000000 0.000001 2.825946 -6.536698 66.148763 2.589185 -4.173774 63.612789 -0.000000 -0.000001 0.000002 2.322358 -6.277994 59.172060 1.343810 -3.274563 44.615113 -0.000000 -0.000000 0.000000 -0.000001 -0.000000 -0.000000 -0.000003 0.000000 0.000001 -0.000003 0.000000 0.000000 -0.000003 0.000000 -0.000000 -0.000003 0.000000 -0.000000 -0.000003 0.000000 0.000001 -0.000003 0.000000 0.000000 -0.000003 0.000000 -0.000000 -0.000003 0.000000 -0.000000 -0.000003 0.000000 0.000001 -0.000003 0.000000 0.000000 -0.000001 -0.000000 0.000000 -0.000001 -0.000000 0.000000 -0.000001 -0.000000 0.000000 
-1.116249 67.637634 0.112415 72.274275 -68.985355 73.722637 0.000000 0.000000 -0.000000 -42.920110 -0.220132 0.162783 29.889898 -3.064615 3.417641 -7.113688 0.564949 -5.414804 -0.000000 0.000000 0.000000 0.000000 -0.000000 0.000000 -42.307705 -1.023489 -7.733714 32.601914 -0.638653 -5.600379 -10.149725 -1.306508 9.909308 -0.000000 0.000000 -0.000000 -0.000001 -0.000000 -0.000000 25.861504 3.126732 1.159745 6.575552 0.959925 0.664972 6.581708 0.922938 0.632035 5.935542 -0.965466 -0.218529 16.666865 -6.185841 6.370304 -0.000001 0.000000 -0.000000 -0.000001 0.000000 -0.000000 -0.000001 0.000000 -0.000000 -0.000001 0.000000 -0.000000 0.000000 0.000000 -0.000000 -0.000001 0.000000 -0.000000 0.000000 0.000000 -0.000000 -0.000001 0.000000 -0.000000 -0.000001 0.000000 -0.000000 -0.412852 -25.864014 1.816557 -39.707438 -14.621939 -87.586077 -0.000020 -28.116824 -0.000021 -25.628709 17.983736 21.885497 47.335250 -9.767193 19.370654 5.975228 12.647528 1.348322 0.000002 0.000001 0.000002 2.673512 7.224014 -56.285410 7.379870 5.648436 -105.171888 0.000002 0.000002 0.000000 3.849299 7.823819 -69.259409 5.350765 5.829712 -85.086310 -0.000001 0.000001 -0.000001 5.186188 8.153288 -82.789344 4.746999 5.746331 -79.104806 0.000000 0.000002 -0.000002 5.971095 8.198890 -90.500710 2.749718 4.963940 -57.946444 -0.000000 0.000000 -0.000001 0.000002 -0.000000 0.000001 -0.406915 14.153219 18.697378 -52.255926 12.172405 74.715815 0.000017 12.908503 -0.000011 -12.077832 -21.221657 -2.531485 14.501002 -6.211804 -0.243363 6.358388 -14.447594 -2.112218 0.000002 -0.000001 0.000001 2.454446 -6.353462 61.045656 2.589170 -4.173725 63.612796 0.000002 0.000001 -0.000001 2.825963 -6.536742 66.148770 2.589187 -4.173760 63.612782 -0.000003 -0.000001 0.000003 2.825947 -6.536696 66.148757 2.589189 -4.173772 63.612796 -0.000002 0.000000 0.000004 2.322358 -6.277992 59.172060 1.343811 -3.274564 44.615117 0.000001 -0.000000 -0.000001 -0.000001 -0.000000 -0.000001 0.000001 -0.000000 0.000000 0.000001 0.000000 -0.000000 0.000001 -0.000000 -0.000000 0.000001 -0.000000 -0.000000 0.000001 -0.000000 0.000000 0.000001 0.000000 -0.000000 0.000001 -0.000000 -0.000000 0.000001 -0.000000 -0.000000 0.000001 -0.000000 0.000000 0.000001 0.000000 -0.000000 0.000000 0.000000 -0.000000 0.000000 0.000000 -0.000000 0.000000 0.000000 -0.000000 
